<svg xmlns="http://www.w3.org/2000/svg" viewBox="0 0 24 24" fill="currentColor">
  <path d="M11.998,24c-0.321,0-0.641-0.084-0.922-0.247L1.738,18.736C0.67,18.135,0,16.936,0,15.648V8.352c0-1.287,0.67-2.488,1.738-3.089l9.338-5.016c0.557-0.3,1.156-0.443,1.922-0.443s1.365,0.143,1.922,0.443l9.338,5.016C23.33,5.864,24,7.065,24,8.352v7.296c0,1.287-0.67,2.488-1.738,3.089l-9.338,5.016C12.639,23.916,12.319,24,11.998,24zM22,8.352c0-0.504-0.262-0.977-0.691-1.246L12,2.25L2.691,7.106C2.262,7.375,2,7.848,2,8.352v7.296c0,0.504,0.262,0.977,0.691,1.246L12,21.75l9.309-4.856C21.738,16.625,22,16.152,22,15.648V8.352z"/>
  <path d="M12,11.998c-1.1,0-2-0.9-2-2s0.9-2,2-2s2,0.9,2,2S13.1,11.998,12,11.998z"/>
  <path d="M12,15.998c-3.314,0-6-2.686-6-6s2.686-6,6-6s6,2.686,6,6S15.314,15.998,12,15.998z"/>
</svg>
